<svg xmlns="http://www.w3.org/2000/svg" xmlns:xlink="http://www.w3.org/1999/xlink" width="128" height="128" viewBox="0 0 33.867 33.867"><style><![CDATA[.B{fill-rule:evenodd}.C{color-interpolation-filters:sRGB}]]></style><defs><linearGradient id="A" x1="-409.477" y1="-393.797" x2="-259.755" y2="-393.797" gradientUnits="userSpaceOnUse"><stop offset="0" stop-color="#fd5"/><stop offset="1" stop-color="#f60"/></linearGradient><filter id="B" x="-.046" width="1.093" y="-.34" height="1.68" class="C"><feGaussianBlur stdDeviation=".681"/></filter><filter id="C" x="-.019" width="1.039" y="-.065" height="1.131" class="C"><feGaussianBlur stdDeviation=".758"/></filter><linearGradient id="D" x1="-186.181" y1="38.642" x2="-155.462" y2="45.37" gradientUnits="userSpaceOnUse"><stop offset="0" stop-color="#fd5"/><stop offset="1" stop-color="#ff2a2a"/></linearGradient><path id="E" d="M-269.796 450.656c8.062 9.123 28.7 16.082 35.822 15.27l-3.176 6.37c-11.322-1.894-31.65-10.936-35.822-15.27z"/></defs><g transform="translate(-86.43 -122.544)" class="B"><g transform="matrix(.226197 0 0 .226197 154.54013 34.386407)"><circle transform="rotate(246.32)" r="74.861" cy="-393.797" cx="-334.616" fill="url(#A)" paint-order="stroke fill markers"/><path d="M-243.865 501.767h35.23v4.804h-35.23z" filter="url(#B)"/><g filter="url(#C)"><use xlink:href="#E"/><ellipse ry="6.405" rx="8.007" cy="472.142" cx="-248.073" paint-order="stroke fill markers"/><g transform="matrix(-1 0 0 1 -452.50054 0)"><use xlink:href="#E"/><ellipse cx="-248.073" cy="472.142" rx="8.007" ry="6.405" paint-order="stroke fill markers"/></g></g></g><circle transform="rotate(246.32)" r="16.933" cy="38.642" cx="-169.248" fill="url(#D)" paint-order="stroke fill markers"/><path d="M99.38 147.885h7.97v1.087h-7.97z"/><g transform="matrix(.226197 0 0 .226197 154.54013 34.386407)"><use xlink:href="#E"/><ellipse ry="6.405" rx="8.007" cy="472.142" cx="-248.073" paint-order="stroke fill markers"/><g transform="matrix(-1 0 0 1 -452.50054 0)"><use xlink:href="#E"/><ellipse cx="-248.073" cy="472.142" rx="8.007" ry="6.405" paint-order="stroke fill markers"/></g></g></g></svg>