<svg xmlns="http://www.w3.org/2000/svg" width="128" height="128" viewBox="0 0 33.867 33.867"><path d="M11.937 32.155C7.753 29.186 5.145 26.22 4.24 23.4c-.325-1.013-.355-1.284-.286-2.646.084-1.66.34-2.608 1.09-4.028.954-1.805 2.08-3.14 5.358-6.363 1.307-1.284 2.717-2.755 3.134-3.27 1.758-2.166 2.103-3.79 1.236-5.812C14.6.856 14.548.637 14.66.69c1.54.727 3.7 2.275 4.804 3.428 1.49 1.568 2.418 3.17 2.992 5.156.388 1.342.45 4.08.14 6.26-.112.788-.165 1.463-.12 1.5.138.11 1.327-.606 1.754-1.057.63-.668 1.08-1.578 1.26-2.553l.167-.904.604.675c2.47 2.758 3.515 4.885 3.663 7.466.107 1.866-.233 3.124-1.328 4.913-1.108 1.8-2.338 3.134-4.64 4.997-1.878 1.52-3.548 2.732-3.548 2.578 0-.036.304-.34.675-.678 2.265-2.056 3.312-4.312 2.965-6.4-.298-1.786-1.146-3.17-3.495-5.7-.79-.855-1.7-1.977-2.022-2.495-.51-.82-.584-1.042-.584-1.727 0-.432.07-.95.158-1.152.29-.67.06-.63-1 .167-2.654 1.98-3.718 4.43-3.366 7.747.085.8.13 1.472.102 1.496s-.283-.15-.565-.384c-.577-.48-.963-1.264-.97-1.973l-.005-.475-.357.35c-.56.548-1.455 2.016-1.817 2.977-.46 1.222-.462 2.786-.005 3.91.534 1.315 1.275 2.303 3 4 .212.21.36.378.33.376s-.706-.466-1.503-1.03z" fill="#f60"/></svg>