<svg xmlns="http://www.w3.org/2000/svg" width="128" height="128" viewBox="0 0 33.867 33.867"><g fill-rule="evenodd"><circle r="16.933" cy="16.933" cx="16.933" fill="#ffdd67" paint-order="stroke fill markers"/><path d="M29.853 16.77c0 7.118-5.834 12.878-12.952 12.878A12.89 12.89 0 0 1 4.013 16.76" fill="#ff2a2a" paint-order="stroke fill markers"/><path d="M4.013 16.76c0 3.655 1.524 6.952 3.967 9.297a12.84 12.84 0 0 1 8.92-3.591 12.95 12.95 0 0 1 8.956 3.591c2.457-2.342 3.995-5.635 3.995-9.287z" paint-order="stroke fill markers"/></g><path d="M7.647 13.637l5.116-2.12q.276-.122.43-.398.16-.276.167-.585.013-.308-.186-.617-.193-.308-.578-.476l-4.93-1.98q-.244-.103-.514.22-.27.315-.283.68-.013.36.334.566l4.126 1.607L7.19 12.2q-.263.18-.263.54.006.36.238.68.238.32.482.22zm18.573 0l-5.116-2.12q-.276-.122-.43-.398-.16-.276-.167-.585-.013-.308.186-.617.193-.308.578-.476l4.93-1.98q.244-.103.514.22.27.315.283.68.013.36-.334.566l-4.126 1.607 4.14 1.665q.263.18.263.54-.006.36-.238.68-.238.32-.482.22z"/></svg>