<svg xmlns="http://www.w3.org/2000/svg" xmlns:xlink="http://www.w3.org/1999/xlink" width="128" height="128" viewBox="0 0 33.867 33.867"><g transform="matrix(.14922 0 0 .14922 -72.54279 -26.33679)"><circle r="113.479" cy="289.977" cx="599.625" fill="#c83737" fill-rule="evenodd" paint-order="stroke fill markers"/><use xlink:href="#B" opacity=".205"/><use xlink:href="#B" y="-8.704" fill="#fff"/></g><defs ><path id="B" d="M596.584 368.88c-15.012-6.3-38.565-25.836-52.073-43.19-14.94-19.194-20.666-37.654-16.473-53.12 3.8-14.02 15.57-25.158 29.732-28.137 12.88-2.7 26.476 1.25 35.672 10.39 2.096 2.083 5.44 6.205 5.984 7.375.18.386.27.387.447.005.605-1.3 3.733-5.142 6.06-7.445 8.257-8.176 20.29-12.288 31.944-10.915 9.76 1.15 19.513 6.386 25.55 13.718 17.402 21.13 9.626 51.538-20.956 81.954-11.78 11.716-26.173 22.66-36.545 27.785-5.14 2.54-6.502 2.77-9.343 1.578z"/></defs></svg>