<svg xmlns="http://www.w3.org/2000/svg" width="128" height="128" viewBox="0 0 33.867 33.867" fill-rule="evenodd"><circle r="16.933" cy="16.934" cx="16.933" fill="#ffdd67" paint-order="stroke fill markers"/><ellipse cx="16.933" cy="24.118" rx="4.585" ry="6.482" paint-order="stroke fill markers"/><circle cx="11.112" cy="11.815" r="2.117" paint-order="stroke fill markers"/><circle r="2.117" cy="11.815" cx="22.754" paint-order="stroke fill markers"/><path d="M10.076 3.32C8.754 3.563 7.73 4.6 7.532 5.9c.735-.742 1.7-1.25 2.753-1.444a5.19 5.19 0 0 1 3.085.373c-.646-1.143-1.97-1.75-3.294-1.5zm13.724 0c1.323.244 2.346 1.282 2.545 2.58-.735-.742-1.7-1.25-2.753-1.444a5.19 5.19 0 0 0-3.085.373c.646-1.143 1.97-1.75 3.294-1.5z" paint-order="stroke fill markers"/></svg>